<?xml version="1.0" encoding="UTF-8" standalone="no"?>
<svg
   xmlns:dc="http://purl.org/dc/elements/1.1/"
   xmlns:cc="http://creativecommons.org/ns#"
   xmlns:rdf="http://www.w3.org/1999/02/22-rdf-syntax-ns#"
   xmlns:svg="http://www.w3.org/2000/svg"
   xmlns="http://www.w3.org/2000/svg"
   xmlns:sodipodi="http://sodipodi.sourceforge.net/DTD/sodipodi-0.dtd"
   xmlns:inkscape="http://www.inkscape.org/namespaces/inkscape"
   t="1672121122447"
   class="icon"
   viewBox="0 0 1024 1024"
   version="1.1"
   p-id="8266"
   width="200"
   height="200"
   id="svg58"
   sodipodi:docname="sound-wave1.svg"
   inkscape:version="1.0.2 (1.0.2+r75+1)">
  <metadata
     id="metadata64">
    <rdf:RDF>
      <cc:Work
         rdf:about="">
        <dc:format>image/svg+xml</dc:format>
        <dc:type
           rdf:resource="http://purl.org/dc/dcmitype/StillImage" />
        <dc:title></dc:title>
      </cc:Work>
    </rdf:RDF>
  </metadata>
  <defs
     id="defs62" />
  <sodipodi:namedview
     pagecolor="#ffffff"
     bordercolor="#666666"
     borderopacity="1"
     objecttolerance="10"
     gridtolerance="10"
     guidetolerance="10"
     inkscape:pageopacity="0"
     inkscape:pageshadow="2"
     inkscape:window-width="1920"
     inkscape:window-height="1027"
     id="namedview60"
     showgrid="false"
     inkscape:zoom="2.885"
     inkscape:cx="18.717504"
     inkscape:cy="100"
     inkscape:window-x="1080"
     inkscape:window-y="512"
     inkscape:window-maximized="1"
     inkscape:current-layer="svg58" />
  <path
     d="M704 945.28c-85.12 0-157.12-75.52-192-201.92L389.76 315.2c-23.04-81.28-57.6-108.8-69.76-108.8s-46.72 27.52-69.76 108.8l-60.8 214.08a64 64 0 1 1-123.2-34.88L128 280.32c35.84-126.4 107.84-201.92 192-201.92s157.12 75.52 192 201.92l121.28 428.16c23.04 81.28 57.6 108.8 69.76 108.8s46.72-27.52 69.76-108.8l60.8-214.08a64 64 0 1 1 123.2 34.88l-60.8 214.4c-34.88 126.4-106.88 201.6-192 201.6z"
     fill="#231F20"
     p-id="8267"
     id="path56"
     style="fill:#0000ff;fill-opacity:1" />
  <path
     style="fill:#aa0000;fill-opacity:0;stroke-width:0.34662"
     d="m 132.05767,183.89307 c -8.51889,-1.855 -16.07859,-7.58222 -22.32647,-16.91452 -2.08225,-3.1102 -5.75189,-10.54044 -7.30928,-14.79976 -0.59001,-1.61363 -6.903341,-23.37272 -14.029615,-48.35356 C 81.266028,78.844406 75.022749,57.313692 74.518347,55.979203 71.669158,48.441128 67.726939,42.620354 64.157785,40.681602 60.565733,38.730411 55.279931,44.374922 50.952003,54.783563 50.440766,56.013088 46.937945,67.826201 43.167952,81.034922 35.654398,107.35977 35.74104,107.1304 32.327794,109.73337 c -1.859776,1.41828 -5.151319,2.57166 -7.339091,2.57166 -1.862627,0 -4.796444,-0.86604 -6.432444,-1.8988 -0.697437,-0.44027 -1.997722,-1.61205 -2.889522,-2.60394 -1.82259,-2.02716 -3.015091,-5.16883 -3.015091,-7.94333 0,-2.082502 13.192326,-47.907199 15.450933,-53.670168 6.09404,-15.549302 15.575586,-26.058494 26.663452,-29.553339 3.690018,-1.163077 9.812967,-1.337812 13.764042,-0.392795 8.394284,2.007741 15.508728,7.501624 21.717941,16.770928 2.331865,3.481077 5.249054,9.305505 7.01366,14.003389 0.771193,2.053131 7.149766,24.017001 14.174616,48.808602 7.02485,24.791603 13.19446,46.245483 13.71025,47.675293 3.54592,9.82955 9.15779,16.82558 12.92911,16.11807 1.80136,-0.33793 5.6522,-4.3779 7.76894,-8.15049 2.77436,-4.94463 4.15124,-9.08761 10.83355,-32.59769 3.54252,-12.46344 6.73131,-23.317252 7.08621,-24.119571 0.93974,-2.124433 3.325,-4.536683 5.72036,-5.785068 1.89156,-0.985826 2.39186,-1.090856 5.212,-1.09417 2.65837,-0.0031 3.41041,0.132666 5.0867,0.918486 2.62449,1.230312 4.78793,3.288828 6.02745,5.735112 0.91333,1.802541 1.01756,2.345539 1.01756,5.301141 0,3.22542 -0.12651,3.73679 -6.17435,24.95667 -7.29214,25.5857 -8.23585,28.50635 -11.19988,34.66205 -7.78453,16.16691 -19.27701,25.04655 -32.26453,24.92911 -1.67615,-0.0151 -3.98554,-0.2318 -5.13199,-0.48145 z"
     id="path66"
     transform="scale(5.12)" />
  <path
     style="fill:#aa0000;fill-opacity:0;stroke-width:0.34662"
     d="m 132.05767,183.89307 c -8.51889,-1.855 -16.07859,-7.58222 -22.32647,-16.91452 -2.08225,-3.1102 -5.75189,-10.54044 -7.30928,-14.79976 -0.59001,-1.61363 -6.903341,-23.37272 -14.029615,-48.35356 C 81.266028,78.844406 75.022749,57.313692 74.518347,55.979203 71.669158,48.441128 67.726939,42.620354 64.157785,40.681602 60.565733,38.730411 55.279931,44.374922 50.952003,54.783563 50.440766,56.013088 46.937945,67.826201 43.167952,81.034922 35.654398,107.35977 35.74104,107.1304 32.327794,109.73337 c -1.859776,1.41828 -5.151319,2.57166 -7.339091,2.57166 -1.862627,0 -4.796444,-0.86604 -6.432444,-1.8988 -0.697437,-0.44027 -1.997722,-1.61205 -2.889522,-2.60394 -1.82259,-2.02716 -3.015091,-5.16883 -3.015091,-7.94333 0,-2.082502 13.192326,-47.907199 15.450933,-53.670168 6.09404,-15.549302 15.575586,-26.058494 26.663452,-29.553339 3.690018,-1.163077 9.812967,-1.337812 13.764042,-0.392795 8.394284,2.007741 15.508728,7.501624 21.717941,16.770928 2.331865,3.481077 5.249054,9.305505 7.01366,14.003389 0.771193,2.053131 7.149766,24.017001 14.174616,48.808602 7.02485,24.791603 13.19446,46.245483 13.71025,47.675293 3.54592,9.82955 9.15779,16.82558 12.92911,16.11807 1.80136,-0.33793 5.6522,-4.3779 7.76894,-8.15049 2.77436,-4.94463 4.15124,-9.08761 10.83355,-32.59769 3.54252,-12.46344 6.73131,-23.317252 7.08621,-24.119571 0.93974,-2.124433 3.325,-4.536683 5.72036,-5.785068 1.89156,-0.985826 2.39186,-1.090856 5.212,-1.09417 2.65837,-0.0031 3.41041,0.132666 5.0867,0.918486 2.62449,1.230312 4.78793,3.288828 6.02745,5.735112 0.91333,1.802541 1.01756,2.345539 1.01756,5.301141 0,3.22542 -0.12651,3.73679 -6.17435,24.95667 -7.29214,25.5857 -8.23585,28.50635 -11.19988,34.66205 -7.78453,16.16691 -19.27701,25.04655 -32.26453,24.92911 -1.67615,-0.0151 -3.98554,-0.2318 -5.13199,-0.48145 z"
     id="path68"
     transform="scale(5.12)" />
  <path
     style="fill:#aa0000;fill-opacity:0;stroke-width:0.34662"
     d="m 132.05767,183.89307 c -8.51889,-1.855 -16.07859,-7.58222 -22.32647,-16.91452 -2.08225,-3.1102 -5.75189,-10.54044 -7.30928,-14.79976 -0.59001,-1.61363 -6.903341,-23.37272 -14.029615,-48.35356 C 81.266028,78.844406 75.022749,57.313692 74.518347,55.979203 71.669158,48.441128 67.726939,42.620354 64.157785,40.681602 60.565733,38.730411 55.279931,44.374922 50.952003,54.783563 50.440766,56.013088 46.937945,67.826201 43.167952,81.034922 35.654398,107.35977 35.74104,107.1304 32.327794,109.73337 c -1.859776,1.41828 -5.151319,2.57166 -7.339091,2.57166 -1.862627,0 -4.796444,-0.86604 -6.432444,-1.8988 -0.697437,-0.44027 -1.997722,-1.61205 -2.889522,-2.60394 -1.82259,-2.02716 -3.015091,-5.16883 -3.015091,-7.94333 0,-2.082502 13.192326,-47.907199 15.450933,-53.670168 6.09404,-15.549302 15.575586,-26.058494 26.663452,-29.553339 3.690018,-1.163077 9.812967,-1.337812 13.764042,-0.392795 8.394284,2.007741 15.508728,7.501624 21.717941,16.770928 2.331865,3.481077 5.249054,9.305505 7.01366,14.003389 0.771193,2.053131 7.149766,24.017001 14.174616,48.808602 7.02485,24.791603 13.19446,46.245483 13.71025,47.675293 3.54592,9.82955 9.15779,16.82558 12.92911,16.11807 1.80136,-0.33793 5.6522,-4.3779 7.76894,-8.15049 2.77436,-4.94463 4.15124,-9.08761 10.83355,-32.59769 3.54252,-12.46344 6.73131,-23.317252 7.08621,-24.119571 0.93974,-2.124433 3.325,-4.536683 5.72036,-5.785068 1.89156,-0.985826 2.39186,-1.090856 5.212,-1.09417 2.65837,-0.0031 3.41041,0.132666 5.0867,0.918486 2.62449,1.230312 4.78793,3.288828 6.02745,5.735112 0.91333,1.802541 1.01756,2.345539 1.01756,5.301141 0,3.22542 -0.12651,3.73679 -6.17435,24.95667 -7.29214,25.5857 -8.23585,28.50635 -11.19988,34.66205 -7.78453,16.16691 -19.27701,25.04655 -32.26453,24.92911 -1.67615,-0.0151 -3.98554,-0.2318 -5.13199,-0.48145 z"
     id="path70"
     transform="scale(5.12)" />
  <path
     style="fill:#aa0000;fill-opacity:0;stroke-width:0.34662"
     d="m 132.05767,183.89307 c -8.51889,-1.855 -16.07859,-7.58222 -22.32647,-16.91452 -2.08225,-3.1102 -5.75189,-10.54044 -7.30928,-14.79976 -0.59001,-1.61363 -6.903341,-23.37272 -14.029615,-48.35356 C 81.266028,78.844406 75.022749,57.313692 74.518347,55.979203 71.669158,48.441128 67.726939,42.620354 64.157785,40.681602 60.565733,38.730411 55.279931,44.374922 50.952003,54.783563 50.440766,56.013088 46.937945,67.826201 43.167952,81.034922 35.654398,107.35977 35.74104,107.1304 32.327794,109.73337 c -1.859776,1.41828 -5.151319,2.57166 -7.339091,2.57166 -1.862627,0 -4.796444,-0.86604 -6.432444,-1.8988 -0.697437,-0.44027 -1.997722,-1.61205 -2.889522,-2.60394 -1.82259,-2.02716 -3.015091,-5.16883 -3.015091,-7.94333 0,-2.082502 13.192326,-47.907199 15.450933,-53.670168 6.09404,-15.549302 15.575586,-26.058494 26.663452,-29.553339 3.690018,-1.163077 9.812967,-1.337812 13.764042,-0.392795 8.394284,2.007741 15.508728,7.501624 21.717941,16.770928 2.331865,3.481077 5.249054,9.305505 7.01366,14.003389 0.771193,2.053131 7.149766,24.017001 14.174616,48.808602 7.02485,24.791603 13.19446,46.245483 13.71025,47.675293 3.54592,9.82955 9.15779,16.82558 12.92911,16.11807 1.80136,-0.33793 5.6522,-4.3779 7.76894,-8.15049 2.77436,-4.94463 4.15124,-9.08761 10.83355,-32.59769 3.54252,-12.46344 6.73131,-23.317252 7.08621,-24.119571 0.93974,-2.124433 3.325,-4.536683 5.72036,-5.785068 1.89156,-0.985826 2.39186,-1.090856 5.212,-1.09417 2.65837,-0.0031 3.41041,0.132666 5.0867,0.918486 2.62449,1.230312 4.78793,3.288828 6.02745,5.735112 0.91333,1.802541 1.01756,2.345539 1.01756,5.301141 0,3.22542 -0.12651,3.73679 -6.17435,24.95667 -7.29214,25.5857 -8.23585,28.50635 -11.19988,34.66205 -7.78453,16.16691 -19.27701,25.04655 -32.26453,24.92911 -1.67615,-0.0151 -3.98554,-0.2318 -5.13199,-0.48145 z"
     id="path72"
     transform="scale(5.12)" />
  <path
     style="fill:#aa0000;fill-opacity:0;stroke-width:0.34662"
     d="m 132.05767,183.89307 c -8.51889,-1.855 -16.07859,-7.58222 -22.32647,-16.91452 -2.08225,-3.1102 -5.75189,-10.54044 -7.30928,-14.79976 -0.59001,-1.61363 -6.903341,-23.37272 -14.029615,-48.35356 C 81.266028,78.844406 75.022749,57.313692 74.518347,55.979203 71.669158,48.441128 67.726939,42.620354 64.157785,40.681602 60.565733,38.730411 55.279931,44.374922 50.952003,54.783563 50.440766,56.013088 46.937945,67.826201 43.167952,81.034922 35.654398,107.35977 35.74104,107.1304 32.327794,109.73337 c -1.859776,1.41828 -5.151319,2.57166 -7.339091,2.57166 -1.862627,0 -4.796444,-0.86604 -6.432444,-1.8988 -0.697437,-0.44027 -1.997722,-1.61205 -2.889522,-2.60394 -1.82259,-2.02716 -3.015091,-5.16883 -3.015091,-7.94333 0,-2.082502 13.192326,-47.907199 15.450933,-53.670168 6.09404,-15.549302 15.575586,-26.058494 26.663452,-29.553339 3.690018,-1.163077 9.812967,-1.337812 13.764042,-0.392795 8.394284,2.007741 15.508728,7.501624 21.717941,16.770928 2.331865,3.481077 5.249054,9.305505 7.01366,14.003389 0.771193,2.053131 7.149766,24.017001 14.174616,48.808602 7.02485,24.791603 13.19446,46.245483 13.71025,47.675293 3.54592,9.82955 9.15779,16.82558 12.92911,16.11807 1.80136,-0.33793 5.6522,-4.3779 7.76894,-8.15049 2.77436,-4.94463 4.15124,-9.08761 10.83355,-32.59769 3.54252,-12.46344 6.73131,-23.317252 7.08621,-24.119571 0.93974,-2.124433 3.325,-4.536683 5.72036,-5.785068 1.89156,-0.985826 2.39186,-1.090856 5.212,-1.09417 2.65837,-0.0031 3.41041,0.132666 5.0867,0.918486 2.62449,1.230312 4.78793,3.288828 6.02745,5.735112 0.91333,1.802541 1.01756,2.345539 1.01756,5.301141 0,3.22542 -0.12651,3.73679 -6.17435,24.95667 -7.29214,25.5857 -8.23585,28.50635 -11.19988,34.66205 -7.78453,16.16691 -19.27701,25.04655 -32.26453,24.92911 -1.67615,-0.0151 -3.98554,-0.2318 -5.13199,-0.48145 z"
     id="path74"
     transform="scale(5.12)" />
  <path
     style="fill:#aa0000;fill-opacity:0;stroke-width:0.34662"
     d="m 132.05767,183.89307 c -8.51889,-1.855 -16.07859,-7.58222 -22.32647,-16.91452 -2.08225,-3.1102 -5.75189,-10.54044 -7.30928,-14.79976 -0.59001,-1.61363 -6.903341,-23.37272 -14.029615,-48.35356 C 81.266028,78.844406 75.022749,57.313692 74.518347,55.979203 71.669158,48.441128 67.726939,42.620354 64.157785,40.681602 60.565733,38.730411 55.279931,44.374922 50.952003,54.783563 50.440766,56.013088 46.937945,67.826201 43.167952,81.034922 35.654398,107.35977 35.74104,107.1304 32.327794,109.73337 c -1.859776,1.41828 -5.151319,2.57166 -7.339091,2.57166 -1.862627,0 -4.796444,-0.86604 -6.432444,-1.8988 -0.697437,-0.44027 -1.997722,-1.61205 -2.889522,-2.60394 -1.82259,-2.02716 -3.015091,-5.16883 -3.015091,-7.94333 0,-2.082502 13.192326,-47.907199 15.450933,-53.670168 6.09404,-15.549302 15.575586,-26.058494 26.663452,-29.553339 3.690018,-1.163077 9.812967,-1.337812 13.764042,-0.392795 8.394284,2.007741 15.508728,7.501624 21.717941,16.770928 2.331865,3.481077 5.249054,9.305505 7.01366,14.003389 0.771193,2.053131 7.149766,24.017001 14.174616,48.808602 7.02485,24.791603 13.19446,46.245483 13.71025,47.675293 3.54592,9.82955 9.15779,16.82558 12.92911,16.11807 1.80136,-0.33793 5.6522,-4.3779 7.76894,-8.15049 2.77436,-4.94463 4.15124,-9.08761 10.83355,-32.59769 3.54252,-12.46344 6.73131,-23.317252 7.08621,-24.119571 0.93974,-2.124433 3.325,-4.536683 5.72036,-5.785068 1.89156,-0.985826 2.39186,-1.090856 5.212,-1.09417 2.65837,-0.0031 3.41041,0.132666 5.0867,0.918486 2.62449,1.230312 4.78793,3.288828 6.02745,5.735112 0.91333,1.802541 1.01756,2.345539 1.01756,5.301141 0,3.22542 -0.12651,3.73679 -6.17435,24.95667 -7.29214,25.5857 -8.23585,28.50635 -11.19988,34.66205 -7.78453,16.16691 -19.27701,25.04655 -32.26453,24.92911 -1.67615,-0.0151 -3.98554,-0.2318 -5.13199,-0.48145 z"
     id="path76"
     transform="scale(5.12)" />
  <path
     style="fill:#aa0000;fill-opacity:0;stroke-width:0.34662"
     d="m 132.05767,183.89307 c -8.51889,-1.855 -16.07859,-7.58222 -22.32647,-16.91452 -2.08225,-3.1102 -5.75189,-10.54044 -7.30928,-14.79976 -0.59001,-1.61363 -6.903341,-23.37272 -14.029615,-48.35356 C 81.266028,78.844406 75.022749,57.313692 74.518347,55.979203 71.669158,48.441128 67.726939,42.620354 64.157785,40.681602 60.565733,38.730411 55.279931,44.374922 50.952003,54.783563 50.440766,56.013088 46.937945,67.826201 43.167952,81.034922 35.654398,107.35977 35.74104,107.1304 32.327794,109.73337 c -1.859776,1.41828 -5.151319,2.57166 -7.339091,2.57166 -1.862627,0 -4.796444,-0.86604 -6.432444,-1.8988 -0.697437,-0.44027 -1.997722,-1.61205 -2.889522,-2.60394 -1.82259,-2.02716 -3.015091,-5.16883 -3.015091,-7.94333 0,-2.082502 13.192326,-47.907199 15.450933,-53.670168 6.09404,-15.549302 15.575586,-26.058494 26.663452,-29.553339 3.690018,-1.163077 9.812967,-1.337812 13.764042,-0.392795 8.394284,2.007741 15.508728,7.501624 21.717941,16.770928 2.331865,3.481077 5.249054,9.305505 7.01366,14.003389 0.771193,2.053131 7.149766,24.017001 14.174616,48.808602 7.02485,24.791603 13.19446,46.245483 13.71025,47.675293 3.54592,9.82955 9.15779,16.82558 12.92911,16.11807 1.80136,-0.33793 5.6522,-4.3779 7.76894,-8.15049 2.77436,-4.94463 4.15124,-9.08761 10.83355,-32.59769 3.54252,-12.46344 6.73131,-23.317252 7.08621,-24.119571 0.93974,-2.124433 3.325,-4.536683 5.72036,-5.785068 1.89156,-0.985826 2.39186,-1.090856 5.212,-1.09417 2.65837,-0.0031 3.41041,0.132666 5.0867,0.918486 2.62449,1.230312 4.78793,3.288828 6.02745,5.735112 0.91333,1.802541 1.01756,2.345539 1.01756,5.301141 0,3.22542 -0.12651,3.73679 -6.17435,24.95667 -7.29214,25.5857 -8.23585,28.50635 -11.19988,34.66205 -7.78453,16.16691 -19.27701,25.04655 -32.26453,24.92911 -1.67615,-0.0151 -3.98554,-0.2318 -5.13199,-0.48145 z"
     id="path78"
     transform="scale(5.12)" />
  <path
     style="fill:#aa0000;fill-opacity:0;stroke-width:0.34662"
     d="m 132.05767,183.89307 c -8.51889,-1.855 -16.07859,-7.58222 -22.32647,-16.91452 -2.08225,-3.1102 -5.75189,-10.54044 -7.30928,-14.79976 -0.59001,-1.61363 -6.903341,-23.37272 -14.029615,-48.35356 C 81.266028,78.844406 75.022749,57.313692 74.518347,55.979203 71.669158,48.441128 67.726939,42.620354 64.157785,40.681602 60.565733,38.730411 55.279931,44.374922 50.952003,54.783563 50.440766,56.013088 46.937945,67.826201 43.167952,81.034922 35.654398,107.35977 35.74104,107.1304 32.327794,109.73337 c -1.859776,1.41828 -5.151319,2.57166 -7.339091,2.57166 -1.862627,0 -4.796444,-0.86604 -6.432444,-1.8988 -0.697437,-0.44027 -1.997722,-1.61205 -2.889522,-2.60394 -1.82259,-2.02716 -3.015091,-5.16883 -3.015091,-7.94333 0,-2.082502 13.192326,-47.907199 15.450933,-53.670168 6.09404,-15.549302 15.575586,-26.058494 26.663452,-29.553339 3.690018,-1.163077 9.812967,-1.337812 13.764042,-0.392795 8.394284,2.007741 15.508728,7.501624 21.717941,16.770928 2.331865,3.481077 5.249054,9.305505 7.01366,14.003389 0.771193,2.053131 7.149766,24.017001 14.174616,48.808602 7.02485,24.791603 13.19446,46.245483 13.71025,47.675293 3.54592,9.82955 9.15779,16.82558 12.92911,16.11807 1.80136,-0.33793 5.6522,-4.3779 7.76894,-8.15049 2.77436,-4.94463 4.15124,-9.08761 10.83355,-32.59769 3.54252,-12.46344 6.73131,-23.317252 7.08621,-24.119571 0.93974,-2.124433 3.325,-4.536683 5.72036,-5.785068 1.89156,-0.985826 2.39186,-1.090856 5.212,-1.09417 2.65837,-0.0031 3.41041,0.132666 5.0867,0.918486 2.62449,1.230312 4.78793,3.288828 6.02745,5.735112 0.91333,1.802541 1.01756,2.345539 1.01756,5.301141 0,3.22542 -0.12651,3.73679 -6.17435,24.95667 -7.29214,25.5857 -8.23585,28.50635 -11.19988,34.66205 -7.78453,16.16691 -19.27701,25.04655 -32.26453,24.92911 -1.67615,-0.0151 -3.98554,-0.2318 -5.13199,-0.48145 z"
     id="path80"
     transform="scale(5.12)" />
  <path
     style="fill:#3e4f00;fill-opacity:0;stroke-width:0.34662"
     d="m 131.88908,183.82675 c -5.79736,-1.23962 -11.11825,-4.35378 -16.13513,-9.44341 -5.2046,-5.28008 -9.7713,-12.79229 -12.97899,-21.35041 C 102.06042,151.12652 95.572523,128.9232 88.357418,103.69224 80.217813,75.228315 74.656496,56.383667 73.704104,54.03914 71.334988,48.207028 68.104839,43.417547 65.046447,41.202059 c -2.362041,-1.711055 -4.042,-1.271374 -7.025892,1.838829 -2.170877,2.262774 -3.437619,4.130496 -5.248805,7.739008 -2.151767,4.287068 -3.141597,7.408437 -9.837655,31.02253 -3.432722,12.10572 -6.549545,22.659644 -6.926274,23.453154 -2.472801,5.20853 -8.832214,8.14676 -14.233888,6.57645 -3.831519,-1.11385 -7.257946,-4.3413 -8.471056,-7.97913 -1.191764,-3.57381 -1.065257,-4.176685 6.045411,-28.809572 3.632085,-12.582323 7.079038,-24.221657 7.659897,-25.865186 3.719372,-10.523901 8.008402,-17.684391 14.404498,-24.048159 4.404757,-4.382495 7.578662,-6.438113 12.681431,-8.213285 3.111945,-1.082597 3.516798,-1.138307 8.297567,-1.141798 4.307151,-0.0031 5.397813,0.112488 7.62565,0.808474 12.082752,3.774707 21.922128,15.155606 27.8659,32.23162 0.670357,1.925886 6.775669,23.121193 13.567369,47.100677 6.7917,23.979479 12.72983,44.768909 13.19584,46.198709 1.54219,4.73175 5.10425,11.43168 7.42319,13.96239 2.34863,2.56312 3.98657,3.71526 5.28179,3.71526 2.52924,0 6.78254,-4.74939 9.77807,-10.91855 2.4485,-5.04255 2.61053,-5.55367 9.88829,-31.19132 3.45303,-12.16414 6.59245,-22.732496 6.97647,-23.485248 1.02312,-2.005477 3.53385,-4.352434 5.73342,-5.359432 2.33191,-1.067584 5.60253,-1.392291 8.06754,-0.800943 5.11669,1.227477 9.37983,6.657252 9.37983,11.946687 0,1.665766 0.26159,0.687886 -7.48458,27.978756 -7.47054,26.31976 -9.14052,30.8575 -14.26529,38.76246 -8.72263,13.45463 -21.09278,19.763 -33.53609,17.10231 z"
     id="path905"
     transform="scale(5.12)" />
  <path
     style="fill:#3e4f00;fill-opacity:0;stroke-width:0.34662"
     d="m 131.88908,183.82675 c -5.79736,-1.23962 -11.11825,-4.35378 -16.13513,-9.44341 -5.2046,-5.28008 -9.7713,-12.79229 -12.97899,-21.35041 C 102.06042,151.12652 95.572523,128.9232 88.357418,103.69224 80.217813,75.228315 74.656496,56.383667 73.704104,54.03914 71.334988,48.207028 68.104839,43.417547 65.046447,41.202059 c -2.362041,-1.711055 -4.042,-1.271374 -7.025892,1.838829 -2.170877,2.262774 -3.437619,4.130496 -5.248805,7.739008 -2.151767,4.287068 -3.141597,7.408437 -9.837655,31.02253 -3.432722,12.10572 -6.549545,22.659644 -6.926274,23.453154 -2.472801,5.20853 -8.832214,8.14676 -14.233888,6.57645 -3.831519,-1.11385 -7.257946,-4.3413 -8.471056,-7.97913 -1.191764,-3.57381 -1.065257,-4.176685 6.045411,-28.809572 3.632085,-12.582323 7.079038,-24.221657 7.659897,-25.865186 3.719372,-10.523901 8.008402,-17.684391 14.404498,-24.048159 4.404757,-4.382495 7.578662,-6.438113 12.681431,-8.213285 3.111945,-1.082597 3.516798,-1.138307 8.297567,-1.141798 4.307151,-0.0031 5.397813,0.112488 7.62565,0.808474 12.082752,3.774707 21.922128,15.155606 27.8659,32.23162 0.670357,1.925886 6.775669,23.121193 13.567369,47.100677 6.7917,23.979479 12.72983,44.768909 13.19584,46.198709 1.54219,4.73175 5.10425,11.43168 7.42319,13.96239 2.34863,2.56312 3.98657,3.71526 5.28179,3.71526 2.52924,0 6.78254,-4.74939 9.77807,-10.91855 2.4485,-5.04255 2.61053,-5.55367 9.88829,-31.19132 3.45303,-12.16414 6.59245,-22.732496 6.97647,-23.485248 1.02312,-2.005477 3.53385,-4.352434 5.73342,-5.359432 2.33191,-1.067584 5.60253,-1.392291 8.06754,-0.800943 5.11669,1.227477 9.37983,6.657252 9.37983,11.946687 0,1.665766 0.26159,0.687886 -7.48458,27.978756 -7.47054,26.31976 -9.14052,30.8575 -14.26529,38.76246 -8.72263,13.45463 -21.09278,19.763 -33.53609,17.10231 z"
     id="path907"
     transform="scale(5.12)" />
  <path
     style="fill:#3e4f00;fill-opacity:0;stroke-width:0.34662"
     d=""
     id="path909"
     transform="scale(5.12)" />
  <path
     style="fill:#3e4f00;fill-opacity:0;stroke-width:0.34662"
     d=""
     id="path911"
     transform="scale(5.12)" />
  <path
     style="fill:#3e4f00;fill-opacity:0;stroke-width:0.34662"
     d=""
     id="path913"
     transform="scale(5.12)" />
  <path
     style="fill:#3e4f00;fill-opacity:0;stroke-width:0.34662"
     d="m 131.88908,183.82675 c -5.79736,-1.23962 -11.11825,-4.35378 -16.13513,-9.44341 -5.2046,-5.28008 -9.7713,-12.79229 -12.97899,-21.35041 C 102.06042,151.12652 95.572523,128.9232 88.357418,103.69224 80.217813,75.228315 74.656496,56.383667 73.704104,54.03914 71.334988,48.207028 68.104839,43.417547 65.046447,41.202059 c -2.362041,-1.711055 -4.042,-1.271374 -7.025892,1.838829 -2.170877,2.262774 -3.437619,4.130496 -5.248805,7.739008 -2.151767,4.287068 -3.141597,7.408437 -9.837655,31.02253 -3.432722,12.10572 -6.549545,22.659644 -6.926274,23.453154 -2.472801,5.20853 -8.832214,8.14676 -14.233888,6.57645 -3.831519,-1.11385 -7.257946,-4.3413 -8.471056,-7.97913 -1.191764,-3.57381 -1.065257,-4.176685 6.045411,-28.809572 3.632085,-12.582323 7.079038,-24.221657 7.659897,-25.865186 3.719372,-10.523901 8.008402,-17.684391 14.404498,-24.048159 4.404757,-4.382495 7.578662,-6.438113 12.681431,-8.213285 3.111945,-1.082597 3.516798,-1.138307 8.297567,-1.141798 4.307151,-0.0031 5.397813,0.112488 7.62565,0.808474 12.082752,3.774707 21.922128,15.155606 27.8659,32.23162 0.670357,1.925886 6.775669,23.121193 13.567369,47.100677 6.7917,23.979479 12.72983,44.768909 13.19584,46.198709 1.54219,4.73175 5.10425,11.43168 7.42319,13.96239 2.34863,2.56312 3.98657,3.71526 5.28179,3.71526 2.52924,0 6.78254,-4.74939 9.77807,-10.91855 2.4485,-5.04255 2.61053,-5.55367 9.88829,-31.19132 3.45303,-12.16414 6.59245,-22.732496 6.97647,-23.485248 1.02312,-2.005477 3.53385,-4.352434 5.73342,-5.359432 2.33191,-1.067584 5.60253,-1.392291 8.06754,-0.800943 5.11669,1.227477 9.37983,6.657252 9.37983,11.946687 0,1.665766 0.26159,0.687886 -7.48458,27.978756 -7.47054,26.31976 -9.14052,30.8575 -14.26529,38.76246 -8.72263,13.45463 -21.09278,19.763 -33.53609,17.10231 z"
     id="path915"
     transform="scale(5.12)" />
</svg>
